<svg id="Layer_1" data-name="Layer 1" xmlns="http://www.w3.org/2000/svg" xmlns:xlink="http://www.w3.org/1999/xlink" viewBox="0 0 3656 3656"><defs><style>.cls-1{fill:none;}.cls-2{clip-path:url(#clip-path);}.cls-3{fill:#1a1a1a;}</style><clipPath id="clip-path"><rect class="cls-1" x="328" y="328" width="3000" height="3000"/></clipPath></defs><g class="cls-2"><path class="cls-3" d="M3126.8,677.07l-6.75,17.36c-13.87-22.32-31.36-40.36-52.67-53.45-70.11-43.11-169.79-25.71-280.07,38.62-9.92,5.74-19.93,11.93-30,18.45-145.09,94-305.15,264.65-438.95,482.24-34.3,55.79-65.06,111.71-92.15,167q-6.26,12.6-12.16,25.16c-156.76,331.68-179.48,633.3-39.08,719.66,88.48,54.41,224.06,12.44,368.65-98.58-4,7.94-7.94,15.93-11.89,23.88-178.11,142.42-351.89,197.2-465.94,127-158.5-97.47-153.72-406.57-8-749.69q13.09-30.92,27.73-62.12A1998.2,1998.2,0,0,1,2192.9,1134c154.87-251.79,346.28-443.17,518.56-536.51h0A640.93,640.93,0,0,1,2777.94,566c100-40.36,190.54-43.48,259.32-1.2C3077.49,589.51,3107.24,627.9,3126.8,677.07Z"/><path class="cls-3" d="M2809.68,1844.27q-90.84,187.41-182.6,365.34c-1.24,2.39-2.43,4.73-3.63,7.08q-5.09,9.76-10.09,19.55c-157.17,303.54-314.29,583.3-464.25,829.08-3.12,5.14-6.19,10.15-9.32,15.24-12.12-.91-23.92-2.2-35.4-3.94-13.22-2-26.08-4.5-38.47-7.49a353.89,353.89,0,0,1-58-19.47,1.26,1.26,0,0,1-.37-.18,274.51,274.51,0,0,1-31.68-16.35q15.7-26,31.5-52.38c117.45-196.38,238.71-412.5,360.47-643.59l0,0q14.74-28.1,29.57-56.48c3.81-7.25,7.57-14.51,11.39-21.81q61.5-118.38,123-241.46c3.94-7.94,7.89-15.93,11.89-23.87q36.63-73.9,73.18-149.23Z"/><path class="cls-3" d="M2058.62,979c-108.82,263.09-233.39,541.88-371.27,828.06q-9,18.68-18,37.19-90.85,187.41-182.61,365.34c-1.19,2.35-2.38,4.69-3.58,7h0c-3.36,6.57-6.75,13.14-10.11,19.65-157.16,303.54-314.28,583.3-464.24,829.08-3.12,5.14-6.24,10.15-9.32,15.24q-18.32-1.36-35.67-4c-13.23-2-26.08-4.5-38.48-7.48a356,356,0,0,1-58-19.47,1.3,1.3,0,0,1-.37-.19,276.66,276.66,0,0,1-31.5-16.2q15.71-26,31.54-52.48c117.45-196.38,238.71-412.5,360.43-643.59q14.88-28.15,29.75-56.7l11.3-21.63q61.44-118.32,122.91-241.41c4-8,8-15.94,11.9-23.92q43.46-87.48,86.68-177c1.52-3.13,3-6.3,4.55-9.42q22.52-46.75,44.53-93.2c144-303.45,272.51-597.4,382.56-871.92Z"/><path class="cls-3" d="M1607,704.63c-142.42,95.27-298.21,263-428.93,475.68-31.73,51.65-60.47,103.4-86,154.59-2.11,4.13-4.13,8.26-6.15,12.35-4.18,8.4-8.22,16.81-12.17,25.16-156.75,331.69-179.48,633.3-39.07,719.66,88.48,54.41,224,12.45,368.56-98.57-4,8-8,15.93-11.9,23.92-178,142.38-351.79,197.15-465.84,127-158.5-97.48-153.73-406.58-8.08-749.69q13.08-30.93,27.77-62.13s0,0,0-.09A1997.49,1997.49,0,0,1,1052.59,1134c154.68-251.56,346-442.84,518.09-536.23a90.67,90.67,0,0,1,8,8.22c18.09,21,27.36,50,28.42,84.66C1607.19,695.22,1607.19,699.86,1607,704.63Z"/><path class="cls-3" d="M1011.83,1361c-27.2,0-51-5.82-70.49-17.42l-.33-.21c-.48-.31-1-.61-1.47-.88l-.43-.26a108.92,108.92,0,0,1-11-8c-.86-.66-1.68-1.35-2.49-2.06-25.49-22.3-39.5-55.3-41.71-98.14-5.77-111.61,72.17-277.1,198.56-421.6,11.93-13.62,24.16-27,36.42-39.66h0l3.25-3.38c168-172.84,355.46-252.17,445.7-188.63,3.21,2.29,6.17,4.62,8.83,6.94l.54.48c.47.41.94.83,1.39,1.28a99.44,99.44,0,0,1,8.81,9.14c19.45,22.55,29.95,53.45,31.11,91.71.16,5.07.14,9.89,0,14.74l-22.94-.88c.17-4.32.18-8.63,0-13.17-1-32.86-9.63-58.94-25.65-77.52a78.6,78.6,0,0,0-7-7.25l-.36-.35c-.17-.17-.37-.33-.55-.5l-.6-.54c-1.93-1.67-4.28-3.52-6.84-5.34-79.14-55.73-256.41,22.94-413.28,183.13l-2.7,2.81c-13.06,13.42-26.13,27.59-38.84,42.12-122.67,140.24-198.39,299.33-192.91,405.3,1.87,36.4,13.26,64,33.84,82,.45.4.93.82,1.44,1.21l.42.33a85.78,85.78,0,0,0,8.63,6.27c.68.4,1.39.82,2.07,1.25,28.69,17,70,18.71,119.59,4.92,5.42-1.51,10.64-3.13,15.5-4.8l.45-.15c.75-.22,1.54-.49,2.3-.75l1.92-.65c89-30.86,192.47-104.44,284.09-202.16l16.75,15.7c-94.72,101-202.32,177.13-295.22,208.81l-1.86.61-1.16.36c-5.24,1.8-10.82,3.53-16.61,5.14C1054.94,1357.66,1032.41,1361,1011.83,1361Z"/><path class="cls-3" d="M998.6,3092c-12.43-.93-24.72-2.31-36.52-4.09-13.23-2-26.51-4.56-39.45-7.67a367.18,367.18,0,0,1-59.7-20,10.09,10.09,0,0,1-1.16-.53,290.31,290.31,0,0,1-32.28-16.65c-37.28-22.26-65.9-51.38-85-86.54C697,2869.29,713,2755,789.31,2634.58c75.06-118.31,200-228.92,351.69-311.45a1149.9,1149.9,0,0,1,111.77-53.29c17.17-7.09,34.63-13.78,51.88-19.85l.52-.19.25-.09c59.25-21,118.4-35.92,175.81-44.44l.73-.13c61-9,118.52-10.46,170.93-4.45l-2.61,22.81c-50.35-5.78-105.74-4.33-164.64,4.31l-1.06.26H1484c-55.7,8.31-113.15,22.86-170.75,43.23-.19.08-.37.14-.55.2l-.25.09c-16.91,5.95-34,12.51-50.9,19.48A1120.48,1120.48,0,0,0,1152,2343.3C1003.6,2424,881.7,2531.8,808.69,2646.88c-71.69,113-87.34,219.09-44.05,298.67,17.13,31.49,42.92,57.68,76.66,77.82a269.67,269.67,0,0,0,30.23,15.56l1,.46a344.47,344.47,0,0,0,55.5,18.55c12.25,2.95,24.86,5.4,37.44,7.28,11.26,1.69,23,3,34.84,3.9Zm486.84-864.17-.16,0Z"/><path class="cls-3" d="M2138.93,3092c-12.93-1-24.79-2.3-36.26-4.05-13.22-2-26.5-4.55-39.44-7.67a366.65,366.65,0,0,1-59.71-20c-.39-.16-.76-.33-1.13-.52A287,287,0,0,1,1969.9,3043c-37.21-22.22-65.76-51.3-84.82-86.4-47.45-87.22-31.53-201.56,44.83-321.93,75.06-118.32,200-228.93,351.69-311.45A1154.06,1154.06,0,0,1,2393.05,2270c17.08-7.07,34.64-13.8,52.19-20l.53-.19.26-.09c59.23-21,118.3-35.89,175.53-44.4l.23,0h.08l.7-.12c61-9,118.51-10.47,170.93-4.45l-2.62,22.8c-50.28-5.76-105.59-4.32-164.42,4.28l-1.46.32h-.6c-55.57,8.3-113,22.83-170.58,43.2l-.53.19-.26.09c-17.22,6.08-34.45,12.68-51.22,19.62a1130.85,1130.85,0,0,0-109.24,52.1c-148.36,80.69-270.27,188.5-343.27,303.58-71.7,113-87.34,219.09-44.06,298.67,17.08,31.43,42.81,57.57,76.48,77.68a264.09,264.09,0,0,0,30.4,15.69l1,.47a344.25,344.25,0,0,0,55.51,18.54c12.24,2.95,24.86,5.4,37.44,7.28,10.92,1.66,22.22,2.92,34.57,3.86Z"/><rect class="cls-3" x="2424.14" y="1832.79" width="385.54" height="22.96"/></g></svg>