<?xml version="1.0" encoding="utf-8"?>
<!-- Generator: Adobe Illustrator 25.2.0, SVG Export Plug-In . SVG Version: 6.00 Build 0)  -->
<svg version="1.1" id="Layer_1" xmlns="http://www.w3.org/2000/svg" xmlns:xlink="http://www.w3.org/1999/xlink" x="0px" y="0px"
	 viewBox="0 0 48 48" style="enable-background:new 0 0 48 48;" xml:space="preserve">
<style type="text/css">
	.st0{fill:#A168C0;}
</style>
<path class="st0" d="M11.6,35.3c2-1.4,4-2.4,6-3.2S21.7,31,24,31s4.5,0.4,6.5,1.2s4,1.8,6,3.2c1.4-1.7,2.5-3.5,3.2-5.4
	s1.1-3.9,1.1-6c0-4.7-1.6-8.7-4.8-11.9s-7.3-4.9-12-4.9S15.3,8.8,12.1,12s-4.9,7.3-4.9,12c0,2.1,0.4,4.1,1.1,6S10.1,33.6,11.6,35.3z
	 M24,25.1c-1.8,0-3.3-0.6-4.5-1.9c-1.2-1.2-1.9-2.8-1.9-4.5c0-1.8,0.6-3.3,1.9-4.6s2.8-1.9,4.5-1.9c1.8,0,3.3,0.6,4.5,1.9
	s1.9,2.7,1.9,4.6s-0.6,3.3-1.9,4.5S25.8,25.1,24,25.1z M24,43c-2.6,0-5.1-0.5-7.4-1.5s-4.3-2.4-6-4.1s-3.1-3.7-4.1-6S5,26.6,5,24
	s0.5-5.1,1.5-7.4s2.4-4.3,4.1-6s3.7-3.1,6-4.1S21.4,5,24,5s5.1,0.5,7.4,1.5s4.3,2.4,6,4.1s3.1,3.7,4.1,6S43,21.4,43,24
	s-0.5,5.1-1.5,7.4s-2.4,4.3-4.1,6s-3.7,3.1-6,4.1S26.6,43,24,43z M24,40.8c1.9,0,3.7-0.3,5.5-0.9s3.5-1.5,5.1-2.8
	c-1.6-1.2-3.3-2.1-5.1-2.8s-3.6-1-5.5-1s-3.8,0.3-5.5,1S15,35.8,13.4,37c1.6,1.3,3.3,2.2,5.1,2.8C20.3,40.5,22.1,40.8,24,40.8z
	 M24,22.9c1.2,0,2.2-0.4,3-1.1s1.1-1.8,1.1-3s-0.4-2.2-1.1-2.9c-0.8-0.8-1.7-1.1-3-1.1c-1.2,0-2.2,0.4-3,1.1
	c-0.8,0.8-1.1,1.8-1.1,2.9s0.4,2.2,1.1,3C21.8,22.5,22.8,22.9,24,22.9z"/>
</svg>
