<?xml version="1.0" encoding="utf-8"?>
<!-- Generator: Adobe Illustrator 25.2.0, SVG Export Plug-In . SVG Version: 6.00 Build 0)  -->
<svg version="1.1" id="Layer_1" xmlns="http://www.w3.org/2000/svg" xmlns:xlink="http://www.w3.org/1999/xlink" x="0px" y="0px"
	 viewBox="0 0 48 48" style="enable-background:new 0 0 48 48;" xml:space="preserve">
<style type="text/css">
	.st0{fill:#AAAAAA;}
	.st1{fill:#0078F6;}
	.st2{enable-background:new    ;}
	.st3{fill:#FFFFFF;}
</style>
<g>
	<path class="st0" d="M17.7,40.1c-0.9,0-1.7-0.4-2.3-1c-0.6-0.6-0.9-1.5-0.9-2.3c0-0.9,0.4-1.7,1-2.3c1.3-1.3,3.4-1.2,4.6,0.1
		c0.6,0.6,0.9,1.4,0.9,2.3c0,0.9-0.3,1.7-1,2.3C19.4,39.7,18.6,40.1,17.7,40.1z"/>
	<path class="st0" d="M32.1,40.1c-0.9,0-1.7-0.4-2.3-1c-0.6-0.6-1-1.5-0.9-2.3c0-1.8,1.4-3.2,3.2-3.2c0.9,0,1.7,0.3,2.3,1
		c0.6,0.6,0.9,1.5,0.9,2.3c0,0.9-0.3,1.7-0.9,2.3C33.9,39.7,33,40.1,32.1,40.1z"/>
	<path class="st0" d="M40.9,15.9l-0.1-0.1c-0.4-0.7-1.1-1.1-1.9-1.1h-28l0,0l0,0l-1.9-4H3.7V13h3.8l1.4,2.9l6.1,13l0.1,0.2l0.1,0.1
		l0.6,0.7c0.2,0.2,0.4,0.4,0.6,0.5c0.5,0.3,1.1,0.5,1.7,0.5H32c0.4-0.1,0.9-0.2,1.2-0.5c0.2-0.1,0.3-0.2,0.5-0.4
		c0.3-0.3,0.6-0.6,0.8-1l6.2-11.2C41.2,17.3,41.2,16.5,40.9,15.9z M32.3,28.4c0,0.1-0.1,0.1-0.1,0.2c0,0,0,0-0.1,0.1H32
		c-0.1,0-0.1,0-0.2,0H17.7l-0.1-0.2l0,0L12.1,17H38c0.1,0,0.2,0.1,0.3,0.2s0.1,0.3,0,0.4L32.3,28.4z"/>
	<circle class="st1" cx="24.9" cy="16.5" r="10.4"/>
	<g class="st2">
		<path class="st3" d="M23.6,14.1L21.8,15v-2.4l3.2-1.8h1.2v11.3h-2.6V14.1z"/>
	</g>
</g>
</svg>
